<?xml version="1.0" encoding="UTF-8" standalone="no"?><!DOCTYPE svg PUBLIC "-//W3C//DTD SVG 1.1//EN" "http://www.w3.org/Graphics/SVG/1.1/DTD/svg11.dtd"><svg width="100%" height="100%" viewBox="0 0 72 72" version="1.1" xmlns="http://www.w3.org/2000/svg" xmlns:xlink="http://www.w3.org/1999/xlink" xml:space="preserve" xmlns:serif="http://www.serif.com/" style="fill-rule:evenodd;clip-rule:evenodd;stroke-linecap:round;stroke-linejoin:round;stroke-miterlimit:1.5;"><g><path d="M36.501,36.262c0,0 5.403,-0.932 6.874,-1.097c0.647,-0.072 1.49,0.005 1.951,0.107c0.312,0.07 0.625,0.293 0.814,0.507c0.185,0.209 0.317,0.496 0.317,0.775c0,0.285 -0.18,0.634 -0.317,0.932c-0.18,0.39 -0.606,1.049 -0.76,1.411c-0.101,0.238 -0.138,0.501 -0.164,0.758c-0.027,0.271 -0.027,0.6 0,0.866c0.025,0.248 0.08,0.506 0.164,0.731c0.082,0.22 0.194,0.433 0.337,0.62c0.039,0.051 0.239,0.332 0.484,0.623c0.221,0.263 0.57,0.448 0.703,0.543c0.39,0.28 0.884,0.505 1.232,0.645c0.271,0.109 0.617,0.164 0.855,0.197c0.19,0.026 0.383,0.01 0.573,0c0.706,-0.04 1.374,-0.127 1.895,-0.252c0.432,-0.103 0.885,-0.226 1.234,-0.5c0.373,-0.293 0.785,-0.821 1.005,-1.256c0.208,-0.413 0.289,-0.89 0.311,-1.351c0.023,-0.496 -0.005,-1.106 -0.171,-1.624c-0.173,-0.535 -0.743,-1.068 -0.863,-1.587c-0.115,-0.5 -0.123,-1.174 0.145,-1.531c0.268,-0.358 0.942,-0.52 1.463,-0.614c0.567,-0.102 1.344,-0.03 1.94,0c0.548,0.028 1.092,0.112 1.636,0.182c0.597,0.078 1.316,0.179 1.943,0.282c1.511,0.25 1.413,0.27 1.639,0.313c0.385,0.074 1.133,0.32 1.133,0.32l-0.325,3.393l-0.164,2.217c0,0 -0.027,1.272 0,1.756c0.022,0.386 0.037,0.812 0.164,1.147c0.125,0.329 0.343,0.629 0.602,0.866c0.272,0.249 0.64,0.523 1.028,0.625c0.392,0.104 0.91,0.104 1.329,0c0.418,-0.104 0.813,-0.443 1.182,-0.625c0.338,-0.166 0.659,-0.397 1.03,-0.465c0.422,-0.078 1.079,-0.132 1.506,0c0.42,0.129 0.808,0.532 1.058,0.787c0.2,0.204 0.342,0.468 0.439,0.738c0.121,0.341 0.243,0.864 0.292,1.307c0.048,0.444 0.048,0.909 0,1.355c-0.049,0.446 -0.13,0.925 -0.292,1.323c-0.16,0.39 -0.394,0.758 -0.685,1.063c-0.403,0.422 -1.314,0.689 -1.902,0.54c-0.488,-0.123 -1.008,-0.258 -1.446,-0.428c-0.411,-0.158 -0.764,-0.489 -1.182,-0.587c-0.419,-0.098 -0.937,-0.098 -1.329,0c-0.383,0.095 -0.761,0.297 -1.028,0.587c-0.299,0.325 -0.62,0.893 -0.766,1.36c-0.143,0.459 -0.108,0.957 -0.108,1.438c0,0.504 0.08,1.163 0.108,1.584c0.021,0.314 0.038,0.628 0.059,0.942c0.027,0.411 0.051,1.017 0.105,1.523c0.072,0.664 0.325,2.457 0.325,2.457l-2.772,0.578l-2.481,0.39c0,0 -1.102,0.143 -1.484,0.184c-0.268,0.029 -0.547,0.063 -0.806,0.063c-0.25,0 -0.528,-0.022 -0.748,-0.063c-0.198,-0.037 -0.394,-0.096 -0.574,-0.184c-0.196,-0.096 -0.425,-0.229 -0.597,-0.39c-0.172,-0.161 -0.364,-0.352 -0.437,-0.578c-0.072,-0.225 -0.066,-0.526 0,-0.776c0.073,-0.276 0.287,-0.588 0.437,-0.879c0.153,-0.297 0.385,-0.576 0.481,-0.904c0.099,-0.339 0.124,-0.752 0.116,-1.131c-0.01,-0.394 -0.056,-0.834 -0.171,-1.232c-0.12,-0.411 -0.284,-0.898 -0.548,-1.238c-0.263,-0.339 -0.648,-0.598 -1.034,-0.799c-0.398,-0.207 -0.883,-0.372 -1.353,-0.443c-0.489,-0.074 -1.056,-0.048 -1.582,0c-0.549,0.05 -1.182,0.128 -1.712,0.302c-0.522,0.173 -1.098,0.429 -1.469,0.748c-0.352,0.302 -0.633,0.723 -0.76,1.167c-0.127,0.443 -0.056,1 0,1.495c0.056,0.497 0.21,1.061 0.337,1.483c0.108,0.36 0.318,0.685 0.423,1.046c0.115,0.398 0.364,0.974 0.267,1.34c-0.097,0.367 -0.507,0.695 -0.848,0.857c-0.34,0.162 -1.195,0.116 -1.195,0.116l-2.094,-0.184l-2.166,-0.277l-2.068,-0.379l-1.535,-0.312c0,0 0.092,-1.898 0.159,-2.719c0.059,-0.736 0.199,-1.496 0.239,-2.203c0.039,-0.678 0.04,-1.441 0,-2.037c-0.034,-0.517 -0.094,-1.118 -0.239,-1.536c-0.128,-0.365 -0.381,-0.739 -0.635,-0.972c-0.242,-0.222 -0.567,-0.359 -0.889,-0.424c-0.347,-0.071 -0.807,-0.09 -1.195,0c-0.423,0.098 -0.891,0.401 -1.342,0.587c-0.48,0.199 -1.039,0.604 -1.538,0.604c-0.5,0 -1.039,-0.307 -1.459,-0.604c-0.419,-0.296 -0.818,-0.71 -1.056,-1.175c-0.238,-0.465 -0.34,-1.064 -0.37,-1.616c-0.045,-0.851 0.3,-2.295 0.643,-2.804c0.269,-0.398 0.723,-0.732 1.124,-0.914c0.392,-0.178 0.85,-0.202 1.279,-0.176c0.458,0.027 1.472,0.736 2.163,1.09c0.263,0.135 0.506,0.146 0.615,0.155c0.203,0.017 0.509,-0.037 1.136,-0.155c0.327,-0.061 0.801,-0.282 1.106,-0.561c0.388,-0.356 0.593,-0.64 0.656,-1.679c0,-0.01 0.001,-0.02 0.001,-0.03c0.039,-0.699 0,-2.504 0,-2.504l-0.398,-5.23Z" style="fill:#ccc;stroke:#000;stroke-width:0.06px;"/></g><g><text x="38.875px" y="50.679px" style="font-family:'ArialMT', 'Arial', sans-serif;font-size:8.189px;">iZettle</text></g><g><path d="M9.278,10.776c0,0 5.403,-0.932 6.874,-1.097c0.647,-0.073 1.49,0.005 1.95,0.107c0.312,0.069 0.626,0.293 0.815,0.507c0.184,0.209 0.317,0.496 0.317,0.775c0,0.284 -0.18,0.633 -0.317,0.932c-0.18,0.39 -0.606,1.049 -0.76,1.411c-0.102,0.238 -0.138,0.501 -0.164,0.758c-0.028,0.271 -0.028,0.599 0,0.865c0.025,0.249 0.08,0.506 0.164,0.731c0.081,0.221 0.194,0.434 0.337,0.621c0.039,0.051 0.239,0.331 0.484,0.623c0.221,0.263 0.569,0.447 0.703,0.543c0.39,0.28 0.884,0.504 1.231,0.644c0.272,0.11 0.618,0.164 0.856,0.197c0.189,0.026 0.382,0.011 0.573,0c0.706,-0.04 1.373,-0.126 1.895,-0.251c0.431,-0.104 0.884,-0.226 1.234,-0.5c0.373,-0.293 0.785,-0.822 1.004,-1.256c0.209,-0.413 0.29,-0.89 0.311,-1.352c0.024,-0.496 -0.004,-1.105 -0.171,-1.623c-0.172,-0.536 -0.742,-1.068 -0.862,-1.588c-0.115,-0.499 -0.123,-1.173 0.145,-1.53c0.268,-0.358 0.942,-0.52 1.462,-0.614c0.568,-0.102 1.345,-0.031 1.941,0c0.548,0.028 1.092,0.111 1.636,0.182c0.597,0.077 1.316,0.178 1.943,0.282c1.51,0.249 1.412,0.27 1.638,0.313c0.386,0.073 1.134,0.32 1.134,0.32l-0.325,3.393l-0.164,2.217c0,0 -0.028,1.272 0,1.756c0.022,0.385 0.036,0.811 0.164,1.147c0.125,0.328 0.343,0.629 0.602,0.866c0.271,0.248 0.64,0.522 1.027,0.625c0.393,0.104 0.911,0.104 1.33,0c0.418,-0.104 0.813,-0.443 1.182,-0.625c0.337,-0.167 0.659,-0.398 1.029,-0.466c0.423,-0.077 1.079,-0.131 1.507,0c0.42,0.129 0.808,0.533 1.057,0.787c0.201,0.205 0.343,0.469 0.439,0.738c0.122,0.341 0.244,0.864 0.292,1.308c0.049,0.444 0.049,0.909 0,1.355c-0.048,0.446 -0.129,0.925 -0.292,1.323c-0.159,0.39 -0.393,0.758 -0.684,1.063c-0.404,0.422 -1.314,0.689 -1.903,0.54c-0.487,-0.124 -1.007,-0.259 -1.445,-0.428c-0.411,-0.159 -0.764,-0.49 -1.182,-0.588c-0.419,-0.098 -0.937,-0.098 -1.33,0c-0.382,0.096 -0.76,0.298 -1.027,0.588c-0.299,0.325 -0.621,0.893 -0.766,1.359c-0.144,0.459 -0.108,0.958 -0.108,1.439c0,0.504 0.08,1.163 0.108,1.584c0.02,0.314 0.037,0.628 0.058,0.941c0.028,0.411 0.051,1.018 0.106,1.524c0.072,0.663 0.325,2.457 0.325,2.457l-2.772,0.578l-2.481,0.389c0,0 -1.102,0.143 -1.484,0.185c-0.268,0.029 -0.547,0.063 -0.806,0.063c-0.251,0 -0.528,-0.022 -0.749,-0.063c-0.197,-0.037 -0.393,-0.096 -0.574,-0.185c-0.195,-0.095 -0.424,-0.228 -0.597,-0.389c-0.172,-0.161 -0.363,-0.352 -0.436,-0.578c-0.073,-0.226 -0.066,-0.526 0,-0.777c0.073,-0.275 0.287,-0.587 0.436,-0.878c0.153,-0.297 0.385,-0.576 0.481,-0.904c0.1,-0.339 0.125,-0.752 0.116,-1.131c-0.009,-0.394 -0.055,-0.834 -0.171,-1.232c-0.119,-0.412 -0.284,-0.899 -0.547,-1.238c-0.264,-0.34 -0.648,-0.598 -1.034,-0.799c-0.398,-0.207 -0.884,-0.373 -1.353,-0.443c-0.489,-0.074 -1.057,-0.049 -1.582,0c-0.549,0.05 -1.183,0.127 -1.713,0.302c-0.521,0.172 -1.097,0.428 -1.468,0.747c-0.353,0.303 -0.634,0.724 -0.76,1.167c-0.127,0.444 -0.056,1.001 0,1.496c0.056,0.496 0.21,1.061 0.337,1.482c0.108,0.361 0.318,0.685 0.423,1.047c0.115,0.397 0.363,0.974 0.267,1.34c-0.097,0.366 -0.508,0.695 -0.848,0.857c-0.341,0.162 -1.196,0.116 -1.196,0.116l-2.094,-0.185l-2.166,-0.276l-2.067,-0.379l-1.535,-0.312c0,0 0.092,-1.899 0.158,-2.719c0.06,-0.736 0.2,-1.496 0.24,-2.203c0.038,-0.678 0.04,-1.442 0,-2.037c-0.035,-0.517 -0.094,-1.119 -0.24,-1.537c-0.127,-0.365 -0.38,-0.738 -0.634,-0.971c-0.242,-0.222 -0.567,-0.359 -0.889,-0.425c-0.348,-0.071 -0.807,-0.09 -1.195,0c-0.423,0.098 -0.891,0.401 -1.342,0.588c-0.48,0.199 -1.039,0.603 -1.539,0.603c-0.499,0 -1.039,-0.306 -1.458,-0.603c-0.419,-0.296 -0.819,-0.71 -1.056,-1.175c-0.238,-0.466 -0.341,-1.064 -0.37,-1.616c-0.046,-0.851 0.3,-2.295 0.643,-2.804c0.268,-0.398 0.723,-0.733 1.124,-0.914c0.392,-0.178 0.849,-0.202 1.279,-0.177c0.458,0.028 1.471,0.737 2.163,1.091c0.263,0.135 0.506,0.146 0.615,0.155c0.202,0.016 0.509,-0.037 1.136,-0.155c0.327,-0.062 0.801,-0.282 1.106,-0.562c0.388,-0.356 0.593,-0.639 0.655,-1.678c0.001,-0.01 0.001,-0.021 0.002,-0.031c0.039,-0.699 0,-2.504 0,-2.504l-0.398,-5.229Z" style="fill:#ccc;stroke:#000;stroke-width:0.06px;"/></g><g><path d="M10.905,20.804l6.83,0c0.433,0 0.782,0.35 0.782,0.782l0,2.607c0,0.432 -0.349,0.782 -0.782,0.782l-2.449,0l0.336,0.823l-1.478,-0.823l-3.235,0c-0.432,0 -0.782,-0.35 -0.782,-0.782l0,-2.607c-0.004,-0.429 0.346,-0.782 0.778,-0.782Z" style="fill:#9b5c8f;"/><path d="M10.545,21.514c0.048,-0.065 0.12,-0.1 0.216,-0.106c0.175,-0.014 0.275,0.068 0.299,0.247c0.106,0.716 0.223,1.324 0.346,1.821l0.752,-1.43c0.068,-0.131 0.154,-0.199 0.257,-0.206c0.151,-0.011 0.243,0.086 0.281,0.288c0.086,0.456 0.196,0.844 0.326,1.173c0.089,-0.871 0.24,-1.499 0.453,-1.887c0.051,-0.096 0.127,-0.144 0.226,-0.151c0.079,-0.006 0.151,0.018 0.216,0.069c0.065,0.052 0.1,0.117 0.107,0.196c0.003,0.061 -0.007,0.113 -0.035,0.164c-0.133,0.247 -0.243,0.662 -0.332,1.239c-0.086,0.559 -0.117,0.994 -0.096,1.307c0.006,0.085 -0.007,0.161 -0.042,0.226c-0.041,0.075 -0.103,0.117 -0.181,0.123c-0.09,0.007 -0.182,-0.034 -0.271,-0.126c-0.319,-0.326 -0.573,-0.813 -0.759,-1.462c-0.223,0.439 -0.387,0.769 -0.494,0.988c-0.202,0.388 -0.373,0.587 -0.518,0.597c-0.092,0.007 -0.171,-0.072 -0.24,-0.237c-0.175,-0.449 -0.363,-1.317 -0.566,-2.603c-0.01,-0.089 0.007,-0.168 0.055,-0.23Z" style="fill:#fff;fill-rule:nonzero;"/><path d="M17.921,22.052c-0.124,-0.216 -0.306,-0.346 -0.549,-0.397c-0.065,-0.014 -0.127,-0.021 -0.186,-0.021c-0.329,0 -0.596,0.171 -0.806,0.514c-0.178,0.292 -0.267,0.615 -0.267,0.968c0,0.264 0.055,0.49 0.164,0.679c0.124,0.216 0.306,0.347 0.549,0.398c0.065,0.014 0.127,0.021 0.186,0.021c0.332,0 0.6,-0.172 0.806,-0.515c0.178,-0.295 0.267,-0.617 0.267,-0.971c0,-0.267 -0.055,-0.49 -0.164,-0.676Zm-0.433,0.951c-0.048,0.226 -0.133,0.394 -0.26,0.507c-0.1,0.09 -0.192,0.127 -0.278,0.11c-0.083,-0.017 -0.151,-0.089 -0.203,-0.223c-0.041,-0.106 -0.061,-0.213 -0.061,-0.312c0,-0.086 0.006,-0.172 0.024,-0.25c0.031,-0.141 0.089,-0.278 0.181,-0.409c0.114,-0.168 0.234,-0.236 0.357,-0.212c0.083,0.017 0.151,0.089 0.203,0.223c0.041,0.106 0.061,0.212 0.061,0.312c0,0.089 -0.01,0.175 -0.024,0.254Z" style="fill:#fff;fill-rule:nonzero;"/><path d="M15.77,22.052c-0.124,-0.216 -0.309,-0.346 -0.549,-0.397c-0.065,-0.014 -0.127,-0.021 -0.185,-0.021c-0.33,0 -0.597,0.171 -0.807,0.514c-0.178,0.292 -0.267,0.615 -0.267,0.968c0,0.264 0.055,0.49 0.165,0.679c0.123,0.216 0.305,0.347 0.548,0.398c0.066,0.014 0.127,0.021 0.186,0.021c0.332,0 0.6,-0.172 0.806,-0.515c0.178,-0.295 0.267,-0.617 0.267,-0.971c0,-0.267 -0.055,-0.49 -0.164,-0.676Zm-0.433,0.951c-0.048,0.226 -0.133,0.394 -0.26,0.507c-0.1,0.09 -0.192,0.127 -0.278,0.11c-0.082,-0.017 -0.151,-0.089 -0.202,-0.223c-0.042,-0.106 -0.062,-0.213 -0.062,-0.312c0,-0.086 0.007,-0.172 0.024,-0.25c0.031,-0.141 0.089,-0.278 0.182,-0.409c0.113,-0.168 0.233,-0.236 0.356,-0.212c0.083,0.017 0.151,0.089 0.203,0.223c0.041,0.106 0.061,0.212 0.061,0.312c0,0.089 -0.006,0.175 -0.024,0.254Z" style="fill:#fff;fill-rule:nonzero;"/><path d="M19.385,22.022c-0.229,0.226 -0.343,0.514 -0.343,0.864c0,0.374 0.114,0.679 0.34,0.909c0.226,0.23 0.521,0.347 0.888,0.347c0.107,0 0.227,-0.018 0.357,-0.055l0,-0.556c-0.12,0.034 -0.223,0.051 -0.312,0.051c-0.182,0 -0.326,-0.061 -0.436,-0.181c-0.109,-0.124 -0.164,-0.289 -0.164,-0.498c0,-0.195 0.055,-0.357 0.161,-0.48c0.11,-0.127 0.243,-0.189 0.408,-0.189c0.106,0 0.22,0.017 0.343,0.052l0,-0.556c-0.113,-0.031 -0.24,-0.045 -0.374,-0.045c-0.35,-0.003 -0.638,0.11 -0.868,0.337Zm2.381,-0.34c-0.316,0 -0.563,0.106 -0.741,0.316c-0.178,0.209 -0.264,0.504 -0.264,0.881c0,0.408 0.089,0.721 0.264,0.937c0.175,0.216 0.432,0.326 0.768,0.326c0.326,0 0.577,-0.11 0.752,-0.326c0.175,-0.216 0.264,-0.522 0.264,-0.913c0,-0.391 -0.089,-0.693 -0.268,-0.905c-0.182,-0.21 -0.439,-0.316 -0.775,-0.316Zm0.271,1.784c-0.062,0.096 -0.154,0.144 -0.271,0.144c-0.11,0 -0.192,-0.048 -0.25,-0.144c-0.059,-0.096 -0.086,-0.288 -0.086,-0.58c0,-0.449 0.113,-0.672 0.343,-0.672c0.24,0 0.364,0.226 0.364,0.682c-0.004,0.282 -0.038,0.474 -0.1,0.57Zm2.466,-1.719l-0.123,0.525c-0.031,0.134 -0.062,0.271 -0.089,0.412l-0.069,0.363c-0.065,-0.363 -0.154,-0.796 -0.267,-1.3l-0.796,0l-0.299,2.336l0.597,0l0.161,-1.609l0.409,1.609l0.425,0l0.391,-1.605l0.168,1.605l0.625,0l-0.316,-2.336l-0.817,0Zm2.858,0l-0.123,0.525c-0.031,0.134 -0.062,0.271 -0.09,0.412l-0.068,0.363c-0.065,-0.363 -0.155,-0.796 -0.268,-1.3l-0.796,0l-0.298,2.336l0.597,0l0.161,-1.609l0.408,1.609l0.426,0l0.387,-1.605l0.168,1.605l0.625,0l-0.316,-2.336l-0.813,0Zm1.942,1.413l0.559,0l0,-0.483l-0.559,0l0,-0.429l0.645,0l0,-0.497l-1.277,0l0,2.336l1.28,0l0,-0.498l-0.648,0l0,-0.429Zm2.425,-0.37c0.065,-0.106 0.099,-0.216 0.099,-0.329c0,-0.22 -0.085,-0.395 -0.257,-0.522c-0.171,-0.127 -0.408,-0.192 -0.703,-0.192l-0.734,0l0,2.336l0.631,0l0,-1.063l0.01,0l0.511,1.063l0.666,0l-0.504,-1.053c0.12,-0.055 0.216,-0.134 0.281,-0.24Zm-0.967,-0.038l0,-0.555c0.15,0.003 0.257,0.027 0.322,0.075c0.065,0.048 0.096,0.123 0.096,0.233c0,0.161 -0.141,0.244 -0.418,0.247Zm1.437,-0.73c-0.23,0.226 -0.343,0.514 -0.343,0.864c0,0.374 0.113,0.679 0.339,0.909c0.227,0.23 0.522,0.347 0.889,0.347c0.106,0 0.226,-0.018 0.357,-0.055l0,-0.556c-0.12,0.034 -0.223,0.051 -0.313,0.051c-0.181,0 -0.325,-0.061 -0.435,-0.181c-0.11,-0.124 -0.165,-0.289 -0.165,-0.498c0,-0.195 0.055,-0.357 0.161,-0.48c0.11,-0.127 0.244,-0.189 0.409,-0.189c0.106,0 0.219,0.017 0.343,0.052l0,-0.556c-0.114,-0.031 -0.24,-0.045 -0.374,-0.045c-0.347,-0.003 -0.638,0.11 -0.868,0.337Zm2.048,1.56l0,-0.425l0.559,0l0,-0.484l-0.559,0l0,-0.428l0.648,0l0,-0.498l-1.276,0l0,2.336l1.28,0l0,-0.497l-0.652,0l0,-0.004Z" style="fill-rule:nonzero;"/></g><g><path d="M36.361,11.068c0,0 2.946,0.582 4.135,0.755c0.994,0.146 2.255,0.258 3,0.288c0.492,0.019 1.057,-0.032 1.473,-0.109c0.356,-0.065 0.72,-0.193 1.027,-0.349c0.298,-0.151 0.626,-0.412 0.815,-0.585c0.136,-0.125 0.237,-0.299 0.317,-0.456c0.077,-0.153 0.136,-0.319 0.161,-0.489c0.027,-0.18 0.034,-0.395 0,-0.588c-0.035,-0.197 -0.085,-0.374 -0.21,-0.594c-0.235,-0.414 -0.232,-0.403 -0.566,-0.992c-0.127,-0.225 -0.221,-0.493 -0.293,-0.736c-0.071,-0.235 -0.12,-0.478 -0.143,-0.722c-0.024,-0.245 -0.034,-0.5 0,-0.747c0.033,-0.249 0.093,-0.514 0.202,-0.749c0.123,-0.263 0.329,-0.627 0.532,-0.832c0.185,-0.187 0.443,-0.291 0.684,-0.396c0.269,-0.117 0.605,-0.276 0.93,-0.308c0.528,-0.051 1.667,-0.051 2.239,0c0.41,0.037 0.876,0.137 1.196,0.308c0.3,0.16 0.529,0.439 0.725,0.717c0.2,0.283 0.406,0.625 0.478,0.982c0.079,0.396 0.054,0.982 0,1.396c-0.05,0.375 -0.205,0.775 -0.327,1.087c-0.107,0.273 -0.304,0.506 -0.406,0.782c-0.106,0.287 -0.23,0.631 -0.23,0.944c0,0.314 0.124,0.656 0.23,0.937c0.1,0.265 0.206,0.547 0.406,0.748c0.201,0.202 0.511,0.355 0.8,0.463c0.335,0.125 0.815,0.24 1.21,0.288c0.385,0.046 0.777,0.035 1.163,0c0.516,-0.048 1.933,-0.288 1.933,-0.288l2.505,-0.463l2.024,-0.292l0.574,0l0.24,2.318l0,1.274l0.197,2.225c0,0 0,0.537 0,0.795c0,0.25 0.033,0.521 0,0.752c-0.031,0.218 -0.124,0.453 -0.197,0.632c-0.063,0.154 -0.156,0.312 -0.24,0.437c-0.076,0.113 -0.168,0.234 -0.263,0.313c-0.09,0.074 -0.197,0.137 -0.311,0.161c-0.128,0.026 -0.306,0 -0.458,0c-0.208,0 -0.535,0.075 -0.786,0c-0.261,-0.079 -0.51,-0.334 -0.78,-0.474c-0.293,-0.152 -0.627,-0.376 -0.979,-0.437c-0.417,-0.073 -1.026,-0.073 -1.526,0c-0.5,0.072 -1.065,0.187 -1.473,0.437c-0.407,0.25 -0.742,0.729 -0.972,1.064c-0.195,0.282 -0.319,0.613 -0.411,0.943c-0.109,0.387 -0.2,0.977 -0.24,1.38c-0.034,0.343 0,0.699 0,1.035c0,0.326 -0.098,0.668 0,0.979c0.109,0.34 0.457,0.743 0.651,1.065c0.172,0.286 0.259,0.645 0.512,0.863c0.256,0.221 0.671,0.334 1.023,0.46c0.393,0.14 0.871,0.381 1.333,0.381c0.522,0 1.319,-0.241 1.796,-0.381c0.371,-0.109 0.697,-0.342 1.066,-0.46c0.385,-0.123 0.901,-0.382 1.244,-0.279c0.343,0.103 0.677,0.517 0.814,0.896c0.169,0.467 0.164,1.315 0.197,1.905c0.03,0.543 0.033,1.09 0,1.632c-0.033,0.541 -0.164,1.19 -0.197,1.616c-0.024,0.314 0.037,0.631 0,0.943c-0.04,0.338 -0.2,0.738 -0.24,1.083c-0.038,0.327 0.322,0.921 0,0.988c-0.399,0.082 -1.615,-0.327 -2.395,-0.491c-0.762,-0.161 -1.625,-0.378 -2.285,-0.497c-0.553,-0.099 -1.125,-0.179 -1.672,-0.215c-0.535,-0.035 -1.167,-0.035 -1.607,0c-0.351,0.029 -0.714,0.125 -1.035,0.215c-0.304,0.086 -0.661,0.191 -0.888,0.327c-0.196,0.117 -0.356,0.35 -0.478,0.49c-0.095,0.108 -0.189,0.22 -0.255,0.348c-0.081,0.157 -0.192,0.42 -0.23,0.593c-0.032,0.146 0,0.298 0,0.447c0,0.178 -0.038,0.437 0,0.623c0.036,0.176 0.139,0.333 0.23,0.488c0.106,0.18 0.288,0.385 0.406,0.593c0.122,0.216 0.241,0.474 0.327,0.7c0.08,0.214 0.185,0.66 0.185,0.66l0,0.661l-0.185,0.76l-0.327,0.61l-0.406,0.471l-0.736,0.4l-0.93,0.29l-0.732,0l-0.783,0l-0.45,0l-0.91,-0.29l-0.71,-0.4l-0.566,-0.471c0,0 -0.161,-0.558 -0.234,-0.786c-0.062,-0.196 -0.169,-0.381 -0.202,-0.584c-0.034,-0.208 -0.034,-0.444 0,-0.661c0.033,-0.221 0.13,-0.47 0.202,-0.66c0.064,-0.165 0.148,-0.322 0.234,-0.477c0.089,-0.159 0.21,-0.31 0.298,-0.475c0.094,-0.177 0.188,-0.387 0.268,-0.584c0.079,-0.194 0.177,-0.386 0.21,-0.594c0.035,-0.219 0.035,-0.502 0,-0.721c-0.033,-0.207 -0.131,-0.436 -0.21,-0.593c-0.067,-0.13 -0.174,-0.236 -0.268,-0.348c-0.094,-0.111 -0.209,-0.239 -0.298,-0.32c-0.07,-0.065 -0.149,-0.124 -0.234,-0.17c-0.154,-0.082 -0.452,-0.245 -0.694,-0.327c-0.267,-0.09 -0.606,-0.179 -0.905,-0.215c-0.294,-0.035 -0.594,-0.026 -0.889,0c-0.393,0.036 -1.037,0.166 -1.472,0.215c-0.378,0.043 -0.761,0.032 -1.138,0.082c-0.416,0.054 -0.937,0.167 -1.359,0.245c-0.39,0.073 -0.779,0.152 -1.169,0.227c-0.42,0.082 -0.973,0.191 -1.355,0.263c-0.312,0.059 -0.937,0.171 -0.937,0.171l-0.228,-1.839l-0.134,-2.359l-0.053,-2.064c0,0 -0.069,-1.014 0,-1.401c0.06,-0.331 0.261,-0.694 0.415,-0.919c0.126,-0.183 0.304,-0.35 0.512,-0.428c0.215,-0.08 0.522,-0.09 0.78,-0.053c0.259,0.038 0.527,0.162 0.775,0.279c0.316,0.15 0.733,0.477 1.122,0.617c0.388,0.14 0.804,0.224 1.216,0.224c0.461,0 1.098,-0.037 1.553,-0.224c0.455,-0.186 0.867,-0.571 1.177,-0.896c0.29,-0.303 0.526,-0.666 0.686,-1.053c0.17,-0.411 0.283,-0.931 0.333,-1.412c0.056,-0.535 0.056,-1.287 0,-1.803c-0.047,-0.442 -0.179,-0.906 -0.333,-1.291c-0.146,-0.364 -0.32,-0.735 -0.592,-1.017c-0.311,-0.322 -0.87,-0.729 -1.271,-0.911c-0.35,-0.159 -0.754,-0.185 -1.138,-0.185c-0.416,0 -0.963,0.091 -1.359,0.185c-0.351,0.082 -0.7,0.225 -1.015,0.377c-0.306,0.148 -0.541,0.447 -0.871,0.534c-0.337,0.089 -0.853,0.089 -1.154,0c-0.268,-0.08 -0.501,-0.305 -0.649,-0.534c-0.147,-0.23 -0.192,-0.555 -0.237,-0.843c-0.05,-0.332 -0.057,-0.763 -0.068,-1.145c-0.011,-0.414 -0.016,-0.891 0,-1.336c0.02,-0.551 0.067,-1.365 0.118,-1.971c0.047,-0.556 0.118,-1.151 0.187,-1.664c0.064,-0.473 0.174,-1.1 0.228,-1.414" style="fill:#002b5b;stroke:#000;stroke-width:0.06px;"/></g><g><path d="M9.138,36.56c0,0 2.946,0.582 4.135,0.756c0.994,0.145 2.254,0.257 3,0.287c0.492,0.02 1.056,-0.032 1.473,-0.108c0.356,-0.065 0.72,-0.194 1.027,-0.349c0.298,-0.152 0.626,-0.412 0.815,-0.586c0.136,-0.125 0.237,-0.298 0.317,-0.456c0.077,-0.153 0.135,-0.319 0.161,-0.489c0.027,-0.179 0.034,-0.394 0,-0.587c-0.035,-0.197 -0.086,-0.374 -0.211,-0.594c-0.234,-0.414 -0.231,-0.403 -0.565,-0.993c-0.127,-0.224 -0.221,-0.492 -0.294,-0.735c-0.07,-0.235 -0.119,-0.478 -0.143,-0.723c-0.023,-0.245 -0.033,-0.5 0,-0.746c0.034,-0.25 0.094,-0.515 0.203,-0.749c0.123,-0.264 0.329,-0.628 0.532,-0.832c0.185,-0.188 0.442,-0.291 0.684,-0.396c0.269,-0.118 0.605,-0.277 0.93,-0.309c0.528,-0.051 1.667,-0.051 2.239,0c0.41,0.037 0.875,0.138 1.195,0.309c0.3,0.16 0.529,0.439 0.726,0.716c0.2,0.283 0.406,0.626 0.477,0.983c0.08,0.396 0.055,0.982 0,1.395c-0.049,0.376 -0.204,0.776 -0.326,1.087c-0.107,0.274 -0.305,0.507 -0.406,0.782c-0.106,0.288 -0.23,0.631 -0.23,0.945c0,0.313 0.124,0.656 0.23,0.936c0.1,0.266 0.206,0.547 0.406,0.748c0.201,0.202 0.511,0.356 0.8,0.464c0.335,0.125 0.815,0.239 1.21,0.287c0.385,0.047 0.777,0.036 1.163,0c0.516,-0.048 1.932,-0.287 1.932,-0.287l2.506,-0.464l2.024,-0.292l0.574,0l0.24,2.318l0,1.274l0.197,2.226c0,0 0,0.536 0,0.794c0,0.251 0.032,0.522 0,0.752c-0.031,0.219 -0.124,0.454 -0.197,0.632c-0.063,0.154 -0.156,0.313 -0.24,0.438c-0.076,0.113 -0.168,0.234 -0.264,0.313c-0.09,0.074 -0.196,0.136 -0.31,0.16c-0.129,0.027 -0.306,0 -0.459,0c-0.207,0 -0.535,0.076 -0.785,0c-0.261,-0.079 -0.51,-0.334 -0.78,-0.473c-0.293,-0.152 -0.627,-0.376 -0.979,-0.438c-0.418,-0.073 -1.027,-0.073 -1.527,0c-0.499,0.073 -1.065,0.187 -1.472,0.438c-0.408,0.25 -0.742,0.729 -0.973,1.063c-0.194,0.283 -0.318,0.614 -0.41,0.944c-0.109,0.387 -0.2,0.977 -0.24,1.379c-0.034,0.344 0,0.7 0,1.035c0,0.327 -0.099,0.668 0,0.979c0.109,0.341 0.457,0.744 0.65,1.065c0.173,0.287 0.259,0.645 0.513,0.864c0.256,0.22 0.671,0.334 1.023,0.459c0.393,0.141 0.871,0.381 1.333,0.381c0.522,0 1.319,-0.24 1.796,-0.381c0.371,-0.109 0.697,-0.341 1.066,-0.459c0.385,-0.123 0.901,-0.382 1.244,-0.279c0.343,0.103 0.677,0.516 0.814,0.896c0.168,0.466 0.164,1.315 0.197,1.904c0.03,0.543 0.032,1.091 0,1.632c-0.033,0.542 -0.164,1.19 -0.197,1.617c-0.024,0.313 0.037,0.63 0,0.942c-0.04,0.338 -0.2,0.739 -0.24,1.084c-0.038,0.327 0.322,0.92 0,0.987c-0.399,0.083 -1.615,-0.326 -2.395,-0.491c-0.763,-0.161 -1.625,-0.378 -2.285,-0.496c-0.553,-0.1 -1.126,-0.179 -1.672,-0.215c-0.535,-0.035 -1.167,-0.036 -1.607,0c-0.351,0.029 -0.714,0.125 -1.035,0.215c-0.304,0.086 -0.661,0.191 -0.889,0.327c-0.195,0.117 -0.355,0.35 -0.477,0.49c-0.095,0.108 -0.189,0.22 -0.255,0.348c-0.081,0.157 -0.192,0.42 -0.23,0.593c-0.033,0.145 0,0.298 0,0.446c0,0.179 -0.039,0.438 0,0.623c0.036,0.176 0.139,0.333 0.23,0.488c0.106,0.18 0.288,0.385 0.406,0.594c0.122,0.215 0.241,0.473 0.326,0.7c0.081,0.214 0.186,0.659 0.186,0.659l0,0.661l-0.186,0.761l-0.326,0.609l-0.406,0.472l-0.736,0.399l-0.93,0.291l-0.732,0l-0.783,0l-0.451,0l-0.909,-0.291l-0.711,-0.399l-0.565,-0.472c0,0 -0.161,-0.557 -0.234,-0.785c-0.062,-0.197 -0.169,-0.381 -0.203,-0.585c-0.033,-0.207 -0.033,-0.443 0,-0.661c0.034,-0.22 0.13,-0.47 0.203,-0.659c0.064,-0.165 0.148,-0.323 0.234,-0.477c0.089,-0.159 0.21,-0.311 0.298,-0.476c0.094,-0.176 0.188,-0.387 0.267,-0.583c0.079,-0.195 0.178,-0.387 0.211,-0.594c0.035,-0.22 0.035,-0.502 0,-0.721c-0.033,-0.207 -0.131,-0.436 -0.211,-0.593c-0.066,-0.131 -0.173,-0.237 -0.267,-0.348c-0.094,-0.112 -0.209,-0.239 -0.298,-0.321c-0.071,-0.065 -0.149,-0.124 -0.234,-0.169c-0.155,-0.083 -0.452,-0.245 -0.694,-0.327c-0.267,-0.09 -0.606,-0.179 -0.905,-0.215c-0.294,-0.035 -0.594,-0.027 -0.889,0c-0.394,0.036 -1.038,0.165 -1.473,0.215c-0.377,0.043 -0.76,0.032 -1.137,0.081c-0.416,0.055 -0.938,0.167 -1.359,0.246c-0.39,0.073 -0.779,0.151 -1.169,0.227c-0.421,0.081 -0.973,0.191 -1.355,0.263c-0.312,0.059 -0.937,0.17 -0.937,0.17l-0.228,-1.838l-0.134,-2.359l-0.053,-2.065c0,0 -0.069,-1.014 0,-1.4c0.059,-0.331 0.261,-0.694 0.415,-0.919c0.126,-0.183 0.303,-0.351 0.512,-0.428c0.215,-0.081 0.522,-0.091 0.779,-0.053c0.259,0.037 0.527,0.162 0.776,0.279c0.316,0.149 0.732,0.477 1.122,0.617c0.388,0.139 0.804,0.223 1.216,0.223c0.461,0 1.097,-0.037 1.552,-0.223c0.455,-0.187 0.867,-0.571 1.178,-0.896c0.289,-0.303 0.525,-0.666 0.686,-1.053c0.169,-0.411 0.283,-0.931 0.333,-1.412c0.056,-0.536 0.056,-1.288 0,-1.803c-0.048,-0.442 -0.179,-0.907 -0.333,-1.291c-0.147,-0.365 -0.32,-0.736 -0.593,-1.018c-0.31,-0.321 -0.869,-0.728 -1.271,-0.911c-0.349,-0.159 -0.753,-0.184 -1.137,-0.184c-0.416,0 -0.963,0.091 -1.359,0.184c-0.351,0.083 -0.7,0.225 -1.015,0.377c-0.307,0.148 -0.542,0.447 -0.871,0.534c-0.338,0.089 -0.853,0.089 -1.154,0c-0.268,-0.079 -0.501,-0.304 -0.649,-0.534c-0.148,-0.229 -0.193,-0.554 -0.237,-0.843c-0.051,-0.331 -0.058,-0.762 -0.068,-1.145c-0.012,-0.413 -0.016,-0.891 0,-1.336c0.02,-0.551 0.067,-1.364 0.118,-1.97c0.047,-0.556 0.118,-1.151 0.187,-1.664c0.064,-0.473 0.173,-1.101 0.228,-1.415" style="fill:#9b5c8f;stroke:#000;stroke-width:0.06px;"/></g></svg>